<?xml version="1.0" encoding="UTF-8"?>
<svg viewBox="0 0 102.85713 102.85713" xmlns="http://www.w3.org/2000/svg">
  <g fill="#ddd" fill-rule="evenodd" transform="translate(-320.62 -474.75)">
    <path d="m462.86 496.65a98.571 98.571 0 1 1 -197.14 0 98.571 98.571 0 1 1 197.14 0z" fill="#fff"
          transform="matrix(.52174 0 0 .52174 181.99 267.06)"/>
    <g fill="#ddd" stroke="#ddd" transform="matrix(.84652 0 0 .84652 277.72 184.37)">
      <path d="m51.429 403.79h120"/>
      <path d="m51.429 403.79h120"/>
      <path d="m59.467 373.79 103.92 60"/>
      <path d="m81.429 351.83 60 103.92"/>
      <path d="m111.43 343.79v120"/>
      <path d="m141.43 351.83-60 103.92"/>
      <path d="m163.39 373.79-103.92 60"/>
      <path d="m171.43 403.79h-120"/>
      <path d="m163.39 433.79-103.92-60"/>
      <path d="m141.43 455.75-60-103.92"/>
      <path d="m111.43 463.79v-120"/>
      <path d="m81.429 455.75 60-103.92"/>
      <path d="m59.467 433.79 103.92-60"/>
    </g>
    <path d="m200 447.72a44.643 44.643 0 1 1 -89.286 0 44.643 44.643 0 1 1 89.286 0z" fill="#fff"
          transform="translate(216.69 78.462)"/>
    <path d="m385.36 378.08a58.214 58.214 0 0 1 50.415 29.107l-50.415 29.107z"
          transform="matrix(.73824 0 0 .73824 87.561 204.09)"/>
  </g>
</svg>
